<svg width="500" height="500" viewBox="0 0 500 500" fill="none" xmlns="http://www.w3.org/2000/svg">
<path d="M351.86 133.9C362.265 135.109 372.48 137.605 382.27 141.33C397.48 147.33 406.58 160.88 424.72 164.87C424.72 164.87 447.45 192.87 424.72 235.5L392.94 230.65C388.285 229.922 383.533 230.088 378.94 231.14C372.68 232.6 361.4 234.06 345.71 231.51L351.86 133.9Z" fill="#FFA8A7"/>
<path d="M239.45 248.83L263.55 262.87V360L239.34 345.78L239.45 248.83Z" fill="#2B9C8E"/>
<path opacity="0.2" d="M239.45 248.83L263.55 262.87V360L239.34 345.78L239.45 248.83Z" fill="black"/>
<path d="M245.26 264.56L254.26 234.56C260.76 225.43 264.99 214.2 264.99 204.26C264.99 187.89 253.5 181.26 239.33 189.44C225.16 197.62 213.66 217.53 213.66 233.9C213.66 241.95 216.44 247.64 220.95 250.38L221.36 250.62L245.26 264.56Z" fill="#2B9C8E"/>
<path d="M239.45 92.5L263.55 106.54V203.68L239.34 189.45L239.45 92.5Z" fill="#2B9C8E"/>
<path opacity="0.2" d="M239.45 92.5L263.55 106.54V203.68L239.34 189.45L239.45 92.5Z" fill="black"/>
<path d="M342.36 99.58L341.99 99.36L342.35 99.58H342.36Z" fill="#FFA8A7"/>
<path d="M340.56 98.53L318.51 85.69C298.51 73.28 270.51 74.57 239.45 92.5C239.41 92.5173 239.373 92.5409 239.34 92.57L263.55 106.57C293.56 89.22 320.75 87.43 340.56 98.53Z" fill="#2B9C8E"/>
<path d="M342.35 99.58L341.99 99.36L340.56 98.53C320.75 87.43 293.56 89.22 263.56 106.53V203.66C249.4 211.84 237.92 231.72 237.92 248.06C237.92 264.4 249.4 271.06 263.56 262.86V360C324.16 325 373.3 239.9 373.3 169.91C373.3 135.62 361.5 111.33 342.35 99.58Z" fill="#2B9C8E"/>
<path opacity="0.3" d="M342.35 99.58L341.99 99.36L340.56 98.53C320.75 87.43 293.56 89.22 263.56 106.53V203.66C249.4 211.84 237.92 231.72 237.92 248.06C237.92 264.4 249.4 271.06 263.56 262.86V360C324.16 325 373.3 239.9 373.3 169.91C373.3 135.62 361.5 111.33 342.35 99.58Z" fill="white"/>
<path d="M348.56 142.52C344.198 133.431 337.238 125.841 328.56 120.71C310.9 110.52 287.9 112.29 263.56 125.71V136.11C264.3 135.65 265.05 135.21 265.81 134.77C279.09 127.1 291.81 123.23 303.16 123.23C310.451 123.116 317.643 124.938 324 128.51C338.45 136.85 346.77 154.26 347.65 177.79C347.71 179.19 347.74 180.61 347.74 182.05C347.74 236.24 310.16 302.18 263.52 330.49V340.88L265.77 339.62C315.93 310.62 356.77 239.97 356.77 182.05C356.77 166.62 353.94 153.25 348.56 142.52Z" fill="white"/>
<path d="M335.74 194.19C335.74 171.64 327.9 154.69 313.66 146.47C299.97 138.57 282.25 139.82 263.55 149.96V160.37C264.29 159.91 265.04 159.44 265.8 159.01C275.8 153.25 285.29 150.34 293.8 150.34C299.19 150.259 304.505 151.611 309.2 154.26C320.54 160.81 326.78 174.99 326.78 194.19C326.78 234.99 298.63 284.56 263.59 306.19V316.6C264.33 316.2 265.08 315.78 265.84 315.34C304.36 293.07 335.74 238.72 335.74 194.19Z" fill="white"/>
<path d="M314.71 206.33C314.71 190.26 309.06 178.15 298.79 172.23C289.08 166.62 276.64 167.37 263.55 174.23V184.62C264.29 184.15 265.04 183.69 265.8 183.26C272.45 179.42 278.8 177.47 284.37 177.47C287.842 177.416 291.265 178.286 294.29 179.99C301.65 184.24 305.71 193.59 305.71 206.3C305.71 233.71 286.99 266.97 263.55 281.86V292.24C264.29 291.85 265.04 291.46 265.8 291.02C292.77 275.48 314.71 237.47 314.71 206.33Z" fill="white"/>
<path d="M281.707 243.804C291.731 226.442 291.73 207.675 281.705 201.887C271.68 196.099 255.427 205.482 245.403 222.844C235.379 240.206 235.38 258.973 245.405 264.761C255.43 270.549 271.683 261.166 281.707 243.804Z" fill="white"/>
<path d="M272.744 238.329C277.816 229.543 277.815 220.045 272.74 217.115C267.665 214.185 259.439 218.933 254.367 227.719C249.294 236.505 249.295 246.003 254.37 248.933C259.445 251.863 267.671 247.115 272.744 238.329Z" fill="#2B9C8E"/>
<path opacity="0.3" d="M272.744 238.329C277.816 229.543 277.815 220.045 272.74 217.115C267.665 214.185 259.439 218.933 254.367 227.719C249.294 236.505 249.295 246.003 254.37 248.933C259.445 251.863 267.671 247.115 272.744 238.329Z" fill="white"/>
<path d="M378.25 159L366.4 155.72C363.573 154.939 360.616 154.741 357.71 155.14C349.36 156.3 331.71 158.74 327.57 159.24C322.17 159.9 319.46 167.03 323.21 172.9C326.96 178.77 335.74 186.65 362.76 184.69C362.76 184.69 376.03 219.17 409.07 200.1C418.83 194.49 412 170 378.25 159Z" fill="#FFA8A7"/>
<path d="M386.13 163.53C385.92 163.53 385.712 163.486 385.52 163.4C383.08 162.32 380.52 161.33 377.78 160.4L371.11 158.55C370.915 158.502 370.732 158.416 370.571 158.296C370.41 158.176 370.275 158.025 370.173 157.852C370.072 157.678 370.006 157.487 369.98 157.288C369.954 157.089 369.968 156.886 370.022 156.693C370.075 156.5 370.167 156.319 370.292 156.161C370.416 156.004 370.571 155.873 370.747 155.777C370.924 155.681 371.117 155.621 371.317 155.601C371.517 155.581 371.718 155.601 371.91 155.66L378.65 157.53C381.398 158.417 384.098 159.445 386.74 160.61C387.054 160.75 387.31 160.993 387.466 161.299C387.622 161.605 387.668 161.956 387.597 162.292C387.525 162.628 387.341 162.929 387.074 163.145C386.807 163.362 386.474 163.48 386.13 163.48V163.53Z" fill="#F28F8F"/>
<path d="M390.25 207.39C379.63 207.39 372.25 201.39 367.49 195.51C367.243 195.199 367.129 194.803 367.172 194.408C367.215 194.013 367.412 193.651 367.72 193.4C367.874 193.276 368.05 193.184 368.239 193.129C368.429 193.074 368.627 193.056 368.823 193.078C369.019 193.099 369.209 193.159 369.382 193.254C369.554 193.348 369.707 193.476 369.83 193.63C375.43 200.63 385.25 207.79 400.28 202.56C400.657 202.427 401.071 202.45 401.431 202.622C401.791 202.795 402.068 203.103 402.2 203.48C402.333 203.857 402.31 204.27 402.138 204.631C401.965 204.991 401.657 205.267 401.28 205.4C397.742 206.679 394.013 207.352 390.25 207.39Z" fill="#F28F8F"/>
<path d="M425.84 168.42C428.77 178.55 435.43 208.28 420.56 230.42C419.752 231.621 418.618 232.567 417.291 233.146C415.965 233.725 414.5 233.914 413.07 233.69L408.5 233C408.502 234.002 408.846 234.974 409.475 235.754C410.104 236.534 410.981 237.076 411.96 237.29L459 247.6V159.28L416 162.04L418.75 163.24C419.526 163.584 420.333 163.856 421.16 164.05C422.259 164.294 423.274 164.828 424.097 165.596C424.92 166.365 425.522 167.34 425.84 168.42Z" fill="#2B9C8E"/>
<path d="M443.81 166C447.71 177.82 454.3 206.81 438.87 237.28C438.085 238.815 436.813 240.047 435.253 240.782C433.694 241.516 431.934 241.713 430.25 241.34L427.03 240.64C426.962 241.264 427.019 241.896 427.196 242.498C427.373 243.1 427.668 243.661 428.063 244.149C428.458 244.637 428.945 245.042 429.498 245.341C430.05 245.64 430.656 245.826 431.28 245.89L483.59 251.31C483.59 251.31 491.05 239.53 491.05 201.24C491.05 162.95 480.25 155.77 480.25 155.77L437.31 157.27C436.361 157.301 435.46 157.7 434.8 158.384C434.139 159.067 433.77 159.98 433.77 160.93L436.08 160.78C437.765 160.669 439.439 161.122 440.839 162.067C442.238 163.012 443.284 164.396 443.81 166Z" fill="#263238"/>
<path d="M463 236.64C463.002 237.879 462.636 239.09 461.95 240.121C461.263 241.151 460.286 241.955 459.143 242.431C457.999 242.906 456.74 243.031 455.525 242.791C454.31 242.551 453.194 241.955 452.317 241.08C451.441 240.205 450.843 239.09 450.601 237.875C450.359 236.66 450.482 235.401 450.956 234.257C451.429 233.112 452.231 232.134 453.261 231.446C454.291 230.757 455.501 230.39 456.74 230.39C458.398 230.39 459.989 231.048 461.163 232.22C462.337 233.392 462.997 234.981 463 236.64Z" fill="white"/>
<path d="M381.56 160.63C381.437 160.644 381.313 160.644 381.19 160.63C380.805 160.529 380.475 160.28 380.271 159.938C380.067 159.596 380.006 159.187 380.1 158.8C380.577 156.881 380.312 154.853 379.36 153.12C379.176 152.773 379.136 152.368 379.247 151.992C379.358 151.616 379.613 151.298 379.955 151.107C380.298 150.916 380.702 150.867 381.081 150.971C381.459 151.074 381.782 151.321 381.98 151.66C383.296 154.066 383.653 156.881 382.98 159.54C382.894 159.851 382.708 160.125 382.452 160.322C382.196 160.519 381.883 160.627 381.56 160.63Z" fill="#F28F8F"/>
<path d="M388.12 230.66C387.787 230.657 387.465 230.544 387.203 230.338C386.942 230.132 386.757 229.844 386.677 229.521C386.596 229.198 386.626 228.858 386.76 228.553C386.895 228.249 387.127 227.998 387.42 227.84C389.386 226.758 391.067 225.223 392.322 223.362C393.578 221.501 394.372 219.369 394.64 217.14C394.66 216.943 394.719 216.752 394.813 216.578C394.908 216.404 395.035 216.25 395.189 216.125C395.343 216 395.519 215.906 395.709 215.85C395.899 215.793 396.098 215.775 396.295 215.795C396.492 215.815 396.683 215.874 396.857 215.968C397.031 216.063 397.185 216.19 397.31 216.344C397.435 216.498 397.529 216.674 397.585 216.864C397.642 217.054 397.66 217.253 397.64 217.45C397.327 220.164 396.365 222.762 394.835 225.025C393.305 227.288 391.252 229.149 388.85 230.45C388.628 230.581 388.377 230.653 388.12 230.66Z" fill="#F28F8F"/>
<path d="M335.38 169.21C335.02 169.21 334.65 169.21 334.29 169.21C330.53 168.94 327.29 167.05 325.83 164.28C325.714 164.046 325.694 163.776 325.775 163.528C325.855 163.279 326.03 163.072 326.261 162.951C326.492 162.829 326.762 162.803 327.012 162.877C327.262 162.952 327.473 163.122 327.6 163.35C328.96 165.94 332.02 167.04 334.44 167.22C337.36 167.43 340.31 166.62 343.16 165.84C344.01 165.61 344.82 165.32 345.05 164.84C345.165 164.431 345.165 163.999 345.05 163.59C344.771 162.283 344.289 161.027 343.62 159.87C343.548 159.756 343.499 159.629 343.477 159.496C343.455 159.363 343.461 159.227 343.493 159.096C343.525 158.965 343.583 158.841 343.664 158.734C343.745 158.626 343.847 158.535 343.964 158.468C344.08 158.4 344.21 158.357 344.343 158.341C344.477 158.325 344.613 158.336 344.743 158.373C344.872 158.411 344.993 158.474 345.097 158.559C345.202 158.645 345.288 158.75 345.35 158.87C346.121 160.184 346.678 161.611 347 163.1C347.227 163.906 347.196 164.763 346.91 165.55C346.27 167.03 344.6 167.49 343.7 167.73C341.005 168.592 338.207 169.09 335.38 169.21Z" fill="#F28F8F"/>
<path d="M118.71 265.59C118.71 265.59 94.6003 275.39 89.9203 283C85.2403 290.61 78.8203 317.19 75.7003 335.5C72.5803 353.81 60.3403 368.44 60.3403 368.44L79.2403 386.76L124.4 297.3L118.71 265.59Z" fill="#FFA8A7"/>
<path d="M139 304C139 234 188.14 148.9 248.75 113.91L224.54 99.91C164 135 114.91 220 114.91 290C114.91 326.47 128.26 351.63 149.62 362.42L171 374.94C151.21 363.42 139 338.88 139 304Z" fill="#2B9C8E"/>
<path opacity="0.3" d="M139 304C139 234 188.14 148.9 248.75 113.91L224.54 99.91C164 135 114.91 220 114.91 290C114.91 326.47 128.26 351.63 149.62 362.42L171 374.94C151.21 363.42 139 338.88 139 304Z" fill="white"/>
<path d="M139 304C139 338.87 151.2 363.41 170.94 374.93C190.68 386.45 218.34 384.93 248.75 367.37V270.24C234.6 278.42 223.12 271.79 223.12 255.45C223.12 239.11 234.6 219.22 248.75 211.05V113.92C188.15 148.91 139 234 139 304Z" fill="#2B9C8E"/>
<path d="M248.76 143.43V133C248.014 133.407 247.264 133.827 246.51 134.26C196.35 163.26 155.51 233.91 155.51 291.83C155.51 320.83 165.51 342.65 183.75 353.17C191.471 357.56 200.22 359.817 209.1 359.71C210.15 359.71 211.21 359.71 212.28 359.62C223.69 359.01 236.03 355.2 248.73 348.21V337.86C247.99 338.32 247.24 338.76 246.48 339.2C245.08 340.007 243.68 340.773 242.28 341.5C221.64 352.28 202.58 353.69 188.28 345.41C172.97 336.57 164.54 317.56 164.54 291.87C164.54 237.68 202.12 171.74 248.76 143.43Z" fill="white"/>
<path d="M246.51 314.91C229.88 324.52 214.51 326.2 203.15 319.65C191.79 313.1 185.57 298.93 185.57 279.73C185.57 238.93 213.72 189.36 248.76 167.73V157.33C248.01 157.74 247.26 158.15 246.51 158.59C208 180.85 176.57 235.2 176.57 279.73C176.57 302.28 184.41 319.23 198.65 327.45C204.7 330.896 211.558 332.67 218.52 332.59C227.92 332.59 238.18 329.7 248.76 323.96V313.55C248 314 247.27 314.48 246.51 314.91Z" fill="white"/>
<path d="M246.51 290.63C235.51 296.99 225.38 298.15 218.02 293.9C210.66 289.65 206.6 280.3 206.6 267.59C206.6 240.18 225.31 206.92 248.76 192.03V181.64C248.01 182.03 247.27 182.43 246.51 182.87C219.51 198.44 197.6 236.44 197.6 267.59C197.6 283.65 203.25 295.77 213.52 301.69C217.898 304.195 222.866 305.486 227.91 305.43C234.42 305.43 241.49 303.43 248.76 299.65V289.27C248 289.74 247.27 290.19 246.51 290.63Z" fill="white"/>
<path opacity="0.5" d="M139 304C139 338.87 151.2 363.41 170.94 374.93C190.68 386.45 218.34 384.93 248.75 367.37V270.24C234.6 278.42 223.12 271.79 223.12 255.45C223.12 239.11 234.6 219.22 248.75 211.05V113.92C188.15 148.91 139 234 139 304Z" fill="white"/>
<path d="M159.66 344.3C170.59 341.63 179.44 328 179.44 328C179.44 328 189.03 289.25 203.69 289.81C204.398 289.842 205.092 290.018 205.73 290.327C206.368 290.636 206.936 291.072 207.399 291.609C207.863 292.145 208.212 292.771 208.425 293.447C208.638 294.122 208.712 294.835 208.64 295.54C208.01 301.89 201.3 327.22 197.73 339.4C193.39 354.23 167.4 376.92 167.4 376.92C167.4 376.92 148.74 347 159.66 344.3Z" fill="#FFA8A7"/>
<path d="M153.45 326.2C164.27 323.09 172.56 309.11 172.56 309.11C172.56 309.11 180.56 270.01 195.24 269.98C195.948 269.983 196.647 270.13 197.296 270.412C197.945 270.694 198.53 271.106 199.014 271.621C199.499 272.137 199.874 272.746 200.115 273.411C200.357 274.076 200.461 274.783 200.42 275.49C200.05 281.87 194.42 307.44 191.29 319.76C187.55 334.76 162.51 358.48 162.51 358.48C162.51 358.48 142.64 329.32 153.45 326.2Z" fill="#FFA8A7"/>
<path d="M175.33 350.6C175.015 350.6 174.707 350.508 174.443 350.336C174.179 350.165 173.971 349.92 173.843 349.632C173.715 349.345 173.673 349.026 173.722 348.715C173.771 348.404 173.91 348.114 174.12 347.88C180.81 340.42 187.52 328.17 189.71 319.37C191.17 313.53 193.54 303.37 195.55 293.74C195.591 293.528 195.674 293.326 195.794 293.146C195.914 292.966 196.069 292.812 196.249 292.692C196.429 292.573 196.631 292.49 196.843 292.449C197.056 292.408 197.274 292.41 197.485 292.455C197.697 292.499 197.898 292.585 198.076 292.708C198.254 292.831 198.405 292.988 198.522 293.17C198.639 293.352 198.718 293.555 198.756 293.768C198.793 293.981 198.788 294.199 198.74 294.41C196.99 302.76 194.63 313.11 192.88 320.16C190.53 329.56 183.66 342.16 176.54 350.06C176.389 350.231 176.202 350.368 175.994 350.461C175.785 350.554 175.559 350.602 175.33 350.6Z" fill="#F28F8F"/>
<path d="M145.07 310.68C155.88 307.56 164.17 293.58 164.17 293.58C164.17 293.58 172.17 254.48 186.85 254.45C187.559 254.457 188.259 254.608 188.907 254.894C189.555 255.181 190.138 255.596 190.62 256.116C191.103 256.635 191.474 257.248 191.711 257.916C191.948 258.584 192.047 259.293 192 260C191.63 266.37 185.95 291.95 182.88 304.27C179.14 319.27 154.09 342.99 154.09 342.99C154.09 342.99 134.26 313.79 145.07 310.68Z" fill="#FFA8A7"/>
<path d="M110.67 302.63C110.67 302.63 118.56 312.02 129.37 308.91C140.18 305.8 148.47 291.81 148.47 291.81C148.47 291.81 156.47 252.71 171.15 252.68C171.859 252.683 172.559 252.83 173.209 253.113C173.859 253.396 174.444 253.808 174.929 254.325C175.414 254.841 175.788 255.452 176.029 256.118C176.27 256.784 176.372 257.493 176.33 258.2C175.96 264.57 170.28 290.15 167.21 302.47C163.47 317.47 138.42 341.19 138.42 341.19L103.76 320.26L110.67 302.63Z" fill="#FFA8A7"/>
<path d="M167.4 376.92C167.4 376.92 145.97 400.11 102.4 415.67L79.25 386.67L103.76 317L143.11 322C143.11 322 179 341.2 167.4 376.92Z" fill="#FFA8A7"/>
<path d="M149.25 331.55C148.848 331.554 148.46 331.408 148.16 331.14C147.838 330.852 147.644 330.448 147.619 330.017C147.595 329.586 147.743 329.162 148.03 328.84C157.95 317.72 164.03 308.47 165.63 302.07C169.01 288.5 174.36 264.07 174.71 258.07C174.756 257.655 174.96 257.273 175.279 257.004C175.598 256.735 176.009 256.598 176.425 256.623C176.842 256.647 177.234 256.831 177.519 257.135C177.805 257.44 177.963 257.842 177.96 258.26C177.57 264.95 171.78 290.83 168.79 302.83C166.61 311.56 157.62 322.95 150.46 330.98C150.311 331.156 150.125 331.297 149.917 331.396C149.708 331.494 149.481 331.547 149.25 331.55Z" fill="#F28F8F"/>
<path d="M163 340C162.583 340.002 162.181 339.84 161.88 339.55C161.724 339.404 161.598 339.229 161.51 339.034C161.421 338.839 161.372 338.628 161.366 338.415C161.359 338.201 161.395 337.988 161.472 337.788C161.548 337.588 161.663 337.405 161.81 337.25C168.99 329.62 178.81 313.73 181.31 303.87C183.37 295.6 186.65 281.16 188.67 270.7C188.71 270.489 188.792 270.288 188.909 270.109C189.027 269.93 189.179 269.775 189.356 269.654C189.533 269.534 189.733 269.449 189.943 269.405C190.153 269.362 190.37 269.36 190.58 269.4C190.791 269.44 190.992 269.521 191.171 269.639C191.351 269.757 191.505 269.908 191.626 270.086C191.747 270.263 191.831 270.463 191.875 270.673C191.918 270.883 191.92 271.099 191.88 271.31C189.88 281.83 186.54 296.31 184.47 304.66C181.82 315.29 171.65 331.55 164.18 339.48C164.029 339.642 163.847 339.772 163.644 339.862C163.441 339.951 163.222 339.998 163 340Z" fill="#F28F8F"/>
<path d="M45.7603 380.26L61.4603 365.26C61.4603 365.26 104.2 377.96 106.46 417.89L92.5803 427.8L45.7603 380.26Z" fill="#2B9C8E"/>
<path opacity="0.3" d="M45.7603 380.26L61.4603 365.26C61.4603 365.26 104.2 377.96 106.46 417.89L92.5803 427.8L45.7603 380.26Z" fill="white"/>
<path d="M45.8701 373.49C54.9401 375.85 92.7701 388.42 97.1601 434.13C97.2198 434.77 97.1398 435.415 96.9257 436.021C96.7116 436.627 96.3685 437.18 95.9201 437.64L66.9201 467.78C66.9201 467.78 0.0801029 447.21 10.1301 397.23L42.3701 374.14C42.8691 373.779 43.4418 373.534 44.0471 373.422C44.6523 373.309 45.275 373.333 45.8701 373.49Z" fill="#263238"/>
<path d="M87.5601 431.43C87.5601 432.561 87.2246 433.667 86.5961 434.608C85.9676 435.548 85.0743 436.282 84.0291 436.715C82.9839 437.148 81.8338 437.261 80.7242 437.04C79.6146 436.819 78.5954 436.275 77.7955 435.475C76.9955 434.675 76.4507 433.655 76.23 432.546C76.0093 431.436 76.1226 430.286 76.5555 429.241C76.9885 428.196 77.7216 427.302 78.6623 426.674C79.6029 426.045 80.7088 425.71 81.8401 425.71C82.5913 425.71 83.3351 425.858 84.0291 426.145C84.723 426.433 85.3536 426.854 85.8848 427.385C86.4159 427.916 86.8372 428.547 87.1247 429.241C87.4122 429.935 87.5601 430.679 87.5601 431.43Z" fill="white"/>
<path d="M122 310.59C121.841 310.59 121.683 310.57 121.53 310.53C117.85 309.391 114.535 307.304 111.918 304.478C109.3 301.652 107.473 298.186 106.62 294.43C106.527 294.007 106.606 293.564 106.84 293.2C107.073 292.835 107.442 292.578 107.865 292.485C108.288 292.392 108.731 292.471 109.095 292.705C109.46 292.938 109.717 293.307 109.81 293.73C110.555 296.91 112.114 299.842 114.333 302.239C116.552 304.635 119.356 306.414 122.47 307.4C122.844 307.513 123.165 307.757 123.374 308.087C123.583 308.417 123.667 308.811 123.61 309.198C123.553 309.584 123.359 309.937 123.064 310.193C122.768 310.448 122.391 310.589 122 310.59Z" fill="#F28F8F"/>
<path d="M155.54 116.97C158.909 116.97 161.64 114.239 161.64 110.87C161.64 107.501 158.909 104.77 155.54 104.77C152.171 104.77 149.44 107.501 149.44 110.87C149.44 114.239 152.171 116.97 155.54 116.97Z" fill="#FAFAFA"/>
<path d="M335.74 383.02C339.109 383.02 341.84 380.289 341.84 376.92C341.84 373.551 339.109 370.82 335.74 370.82C332.371 370.82 329.64 373.551 329.64 376.92C329.64 380.289 332.371 383.02 335.74 383.02Z" fill="#FAFAFA"/>
<path d="M80.4802 246.39C80.4742 247.251 80.2132 248.092 79.7301 248.805C79.247 249.518 78.5634 250.073 77.7656 250.398C76.9679 250.723 76.0917 250.804 75.2476 250.632C74.4036 250.459 73.6295 250.041 73.0232 249.429C72.4168 248.817 72.0053 248.039 71.8407 247.193C71.676 246.348 71.7655 245.472 72.0979 244.678C72.4303 243.883 72.9906 243.204 73.7083 242.728C74.4259 242.251 75.2687 241.998 76.1301 242C76.7044 242.001 77.2727 242.116 77.8025 242.338C78.3323 242.559 78.8131 242.883 79.2173 243.291C79.6215 243.699 79.9411 244.183 80.1579 244.715C80.3746 245.246 80.4841 245.816 80.4802 246.39Z" fill="#FAFAFA"/>
<path d="M363.74 91.55C366.143 91.55 368.09 89.6024 368.09 87.2C368.09 84.7976 366.143 82.85 363.74 82.85C361.338 82.85 359.39 84.7976 359.39 87.2C359.39 89.6024 361.338 91.55 363.74 91.55Z" fill="#FAFAFA"/>
<path d="M128.28 167.31C128.27 167.901 128.086 168.476 127.751 168.963C127.415 169.45 126.943 169.826 126.394 170.046C125.845 170.265 125.244 170.317 124.665 170.196C124.086 170.075 123.557 169.785 123.142 169.364C122.727 168.942 122.447 168.408 122.335 167.827C122.223 167.247 122.285 166.646 122.514 166.101C122.742 165.555 123.127 165.09 123.619 164.762C124.111 164.435 124.689 164.26 125.28 164.26C126.08 164.276 126.841 164.604 127.402 165.174C127.963 165.744 128.278 166.51 128.28 167.31Z" fill="#FAFAFA"/>
<path d="M317.76 366.35C317.75 366.939 317.567 367.512 317.234 367.998C316.901 368.483 316.432 368.86 315.885 369.081C315.339 369.302 314.74 369.357 314.163 369.239C313.586 369.122 313.056 368.837 312.639 368.421C312.223 368.004 311.938 367.474 311.821 366.897C311.704 366.32 311.759 365.721 311.98 365.175C312.2 364.629 312.577 364.16 313.063 363.826C313.548 363.493 314.121 363.31 314.71 363.3C315.113 363.293 315.512 363.368 315.885 363.518C316.259 363.669 316.597 363.894 316.882 364.178C317.167 364.463 317.391 364.802 317.542 365.175C317.693 365.548 317.767 365.948 317.76 366.35Z" fill="#FAFAFA"/>
<path d="M175.06 113.92C175.07 114.525 174.9 115.12 174.571 115.628C174.241 116.136 173.769 116.535 173.212 116.773C172.656 117.012 172.041 117.079 171.446 116.967C170.851 116.855 170.303 116.569 169.872 116.144C169.44 115.72 169.145 115.177 169.023 114.584C168.901 113.991 168.958 113.375 169.188 112.815C169.417 112.254 169.808 111.775 170.31 111.438C170.813 111.1 171.405 110.92 172.01 110.92C172.408 110.913 172.804 110.986 173.173 111.134C173.543 111.282 173.88 111.502 174.164 111.781C174.448 112.06 174.673 112.393 174.827 112.76C174.981 113.128 175.06 113.522 175.06 113.92Z" fill="#FAFAFA"/>
<path d="M362.07 349C362.07 349.603 361.891 350.193 361.556 350.694C361.221 351.196 360.745 351.587 360.187 351.818C359.63 352.049 359.017 352.109 358.425 351.991C357.834 351.874 357.29 351.583 356.864 351.157C356.437 350.73 356.147 350.187 356.029 349.595C355.911 349.003 355.972 348.39 356.202 347.833C356.433 347.276 356.824 346.799 357.326 346.464C357.827 346.129 358.417 345.95 359.02 345.95C359.828 345.953 360.603 346.275 361.174 346.846C361.745 347.418 362.068 348.192 362.07 349Z" fill="#FAFAFA"/>
<path d="M106.81 246.39C106.82 246.997 106.648 247.594 106.317 248.103C105.986 248.612 105.51 249.011 104.951 249.248C104.391 249.485 103.774 249.549 103.178 249.433C102.581 249.317 102.033 249.026 101.604 248.596C101.174 248.167 100.883 247.619 100.767 247.022C100.651 246.426 100.715 245.809 100.952 245.25C101.189 244.69 101.588 244.214 102.097 243.883C102.606 243.552 103.203 243.38 103.81 243.39C104.606 243.39 105.369 243.706 105.931 244.269C106.494 244.831 106.81 245.594 106.81 246.39Z" fill="#FAFAFA"/>
<path d="M387.4 118C387.39 118.591 387.206 119.166 386.87 119.653C386.535 120.14 386.063 120.516 385.514 120.736C384.965 120.955 384.363 121.007 383.785 120.886C383.206 120.765 382.676 120.475 382.262 120.054C381.847 119.632 381.566 119.098 381.454 118.517C381.343 117.937 381.405 117.336 381.633 116.791C381.862 116.245 382.246 115.78 382.739 115.452C383.231 115.125 383.809 114.95 384.4 114.95C385.199 114.966 385.961 115.294 386.522 115.864C387.082 116.434 387.398 117.2 387.4 118Z" fill="#FAFAFA"/>
<path d="M93.2202 207.73L100.73 211.84L93.2202 215.94L89.1102 223.46L85.0002 215.94L77.4902 211.84L85.0002 207.73L89.1102 200.22L93.2202 207.73Z" fill="#2B9C8E"/>
<path d="M294.06 389.87L301.57 393.98L294.06 398.09L289.95 405.6L285.84 398.09L278.33 393.98L285.84 389.87L289.95 382.36L294.06 389.87Z" fill="#2B9C8E"/>
<path d="M318.82 44.36L326.33 48.47L318.82 52.58L314.71 60.09L310.6 52.58L303.09 48.47L310.6 44.36L314.71 36.85L318.82 44.36Z" fill="#2B9C8E"/>
<path d="M338.48 63.84L342.23 65.89L338.48 67.95L336.42 71.7L334.37 67.95L330.61 65.89L334.37 63.84L336.42 60.09L338.48 63.84Z" fill="#2B9C8E"/>
<path d="M240.69 61.09L245.76 63.86L240.69 66.63L237.91 71.7L235.14 66.63L230.07 63.86L235.14 61.09L237.91 56.01L240.69 61.09Z" fill="#2B9C8E"/>
<path d="M239.97 391.93L243.72 393.98L239.97 396.04L237.91 399.79L235.86 396.04L232.1 393.98L235.86 391.93L237.91 388.17L239.97 391.93Z" fill="#2B9C8E"/>
<path d="M398.18 253.86L401.94 255.91L398.18 257.96L396.13 261.72L394.07 257.96L390.32 255.91L394.07 253.86L396.13 250.1L398.18 253.86Z" fill="#2B9C8E"/>
<path d="M417.54 289.74L358.55 255.91L317.86 264.64L330.89 304.16L389.88 337.99L376.85 298.46L417.54 289.74Z" fill="#2B9C8E"/>
<path opacity="0.3" d="M417.54 289.74L358.55 255.91L317.86 264.64L330.89 304.16L389.88 337.99L376.85 298.46L417.54 289.74Z" fill="black"/>
<path d="M340.08 304.49C339.869 304.49 339.664 304.423 339.493 304.299C339.322 304.175 339.195 304 339.13 303.8L328.79 272.45L342.48 269.51C342.609 269.482 342.742 269.48 342.871 269.504C343.001 269.527 343.124 269.576 343.235 269.648C343.346 269.719 343.441 269.812 343.516 269.92C343.59 270.029 343.643 270.151 343.67 270.28C343.723 270.538 343.672 270.808 343.528 271.029C343.384 271.25 343.158 271.405 342.9 271.46L331.39 273.93L341 303.18C341.082 303.432 341.061 303.706 340.941 303.942C340.821 304.179 340.612 304.358 340.36 304.44C340.269 304.468 340.175 304.485 340.08 304.49Z" fill="#2B9C8E"/>
<path d="M350.83 269.74C350.565 269.768 350.299 269.689 350.092 269.521C349.885 269.353 349.753 269.11 349.725 268.845C349.697 268.58 349.776 268.314 349.943 268.107C350.111 267.9 350.355 267.768 350.62 267.74L363.53 265C363.661 264.969 363.797 264.964 363.93 264.986C364.063 265.008 364.191 265.056 364.306 265.127C364.42 265.198 364.52 265.291 364.599 265.4C364.677 265.51 364.734 265.634 364.765 265.765C364.796 265.896 364.8 266.032 364.779 266.166C364.757 266.299 364.709 266.426 364.638 266.541C364.567 266.656 364.474 266.755 364.365 266.834C364.255 266.913 364.131 266.969 364 267L351 269.72L350.83 269.74Z" fill="#2B9C8E"/>
<path d="M341.49 277.56C341.225 277.588 340.959 277.509 340.752 277.341C340.545 277.174 340.413 276.93 340.385 276.665C340.357 276.4 340.436 276.134 340.604 275.927C340.771 275.72 341.015 275.588 341.28 275.56L364.74 270.56C364.99 270.525 365.244 270.586 365.451 270.73C365.659 270.875 365.803 271.093 365.856 271.34C365.91 271.587 365.867 271.845 365.738 272.062C365.609 272.279 365.402 272.439 365.16 272.51L341.7 277.51C341.633 277.537 341.562 277.553 341.49 277.56Z" fill="#2B9C8E"/>
<path d="M347.69 308.72C347.479 308.72 347.274 308.653 347.103 308.529C346.932 308.405 346.805 308.23 346.74 308.03L342.91 296.39C342.868 296.265 342.85 296.133 342.859 296.002C342.868 295.87 342.903 295.742 342.961 295.624C343.02 295.506 343.101 295.401 343.2 295.314C343.3 295.228 343.415 295.162 343.54 295.12C343.665 295.078 343.798 295.061 343.93 295.07C344.062 295.08 344.191 295.115 344.309 295.175C344.427 295.234 344.532 295.317 344.618 295.417C344.704 295.518 344.769 295.634 344.81 295.76L348.64 307.41C348.723 307.661 348.703 307.934 348.585 308.17C348.467 308.406 348.26 308.586 348.01 308.67C347.906 308.701 347.798 308.718 347.69 308.72Z" fill="#2B9C8E"/>
<path d="M379.67 286.42C379.437 286.425 379.21 286.349 379.028 286.205C378.845 286.061 378.719 285.857 378.67 285.63C378.616 285.373 378.666 285.105 378.808 284.884C378.95 284.663 379.174 284.507 379.43 284.45L389.52 282.28C389.785 282.224 390.062 282.276 390.289 282.424C390.516 282.573 390.674 282.805 390.73 283.07C390.786 283.335 390.734 283.612 390.586 283.839C390.437 284.066 390.205 284.224 389.94 284.28L379.85 286.44C379.789 286.441 379.729 286.434 379.67 286.42Z" fill="#2B9C8E"/>
<path d="M361.55 317.43C361.339 317.43 361.134 317.363 360.963 317.239C360.792 317.115 360.665 316.94 360.6 316.74L352.08 290.87C352.038 290.745 352.02 290.613 352.029 290.482C352.038 290.35 352.072 290.222 352.131 290.104C352.19 289.986 352.271 289.881 352.37 289.794C352.47 289.708 352.585 289.642 352.71 289.6C352.835 289.558 352.968 289.541 353.1 289.55C353.232 289.56 353.36 289.595 353.479 289.655C353.597 289.714 353.702 289.797 353.788 289.897C353.874 289.998 353.939 290.114 353.98 290.24L362.5 316.11C362.542 316.235 362.559 316.368 362.55 316.5C362.54 316.632 362.505 316.76 362.445 316.879C362.386 316.997 362.303 317.102 362.203 317.188C362.102 317.274 361.986 317.339 361.86 317.38C361.759 317.411 361.655 317.428 361.55 317.43Z" fill="#2B9C8E"/>
<path d="M375.43 294.28C375.165 294.308 374.899 294.229 374.692 294.061C374.485 293.893 374.353 293.65 374.325 293.385C374.297 293.12 374.376 292.854 374.543 292.647C374.711 292.44 374.955 292.308 375.22 292.28L400.6 286.84C400.732 286.801 400.87 286.79 401.007 286.808C401.143 286.825 401.274 286.87 401.392 286.94C401.51 287.011 401.613 287.105 401.693 287.216C401.773 287.328 401.829 287.455 401.858 287.589C401.887 287.723 401.888 287.862 401.861 287.997C401.834 288.132 401.779 288.26 401.701 288.372C401.622 288.485 401.521 288.58 401.404 288.652C401.287 288.724 401.156 288.771 401.02 288.79L375.64 294.23L375.43 294.28Z" fill="#2B9C8E"/>
<path d="M369.43 321.58C369.219 321.58 369.014 321.513 368.843 321.389C368.673 321.265 368.545 321.091 368.48 320.89L364.24 308C364.169 307.751 364.197 307.485 364.319 307.256C364.44 307.028 364.645 306.855 364.891 306.775C365.137 306.695 365.405 306.713 365.638 306.826C365.871 306.939 366.051 307.137 366.14 307.38L370.38 320.24C370.462 320.492 370.441 320.766 370.321 321.002C370.201 321.239 369.992 321.418 369.74 321.5C369.641 321.541 369.537 321.568 369.43 321.58Z" fill="#2B9C8E"/>
<path d="M342.69 283.48C342.075 283.482 341.471 283.319 340.94 283.01L261.94 237.42C261.159 236.945 260.595 236.182 260.369 235.297C260.143 234.411 260.272 233.472 260.729 232.68C261.187 231.888 261.935 231.307 262.816 231.06C263.696 230.814 264.638 230.921 265.44 231.36L344.44 276.95C345.107 277.335 345.628 277.93 345.922 278.642C346.217 279.353 346.268 280.142 346.069 280.886C345.869 281.63 345.43 282.287 344.819 282.756C344.209 283.225 343.46 283.48 342.69 283.48Z" fill="#263238"/>
</svg>
